<?xml version="1.0" encoding="utf-8"?>
<!-- Generator: Adobe Illustrator 25.4.1, SVG Export Plug-In . SVG Version: 6.00 Build 0)  -->
<svg version="1.1" id="Layer_1" xmlns="http://www.w3.org/2000/svg" xmlns:xlink="http://www.w3.org/1999/xlink" x="0px" y="0px"
	 viewBox="0 0 1366 768" style="enable-background:new 0 0 1366 768;" xml:space="preserve">
<style type="text/css">
	.st0{fill:#779B5F;}
	.st1{fill:none;stroke:#000000;stroke-miterlimit:10;}
	.st2{fill:#8625CC;}
	.st3{fill:#43A00D;}
	.st4{fill:#670BB7;}
	.st5{fill:#F23900;}
	.st6{fill:#12170F;}
	.st7{fill:#CE2424;}
</style>
<g id="XMLID_00000090978839899430617930000015260972484968938402_">
	<g>
		<polygon class="st0" points="611.8,38 695.14,211.84 597.33,354.75 405.11,340.01 		"/>
	</g>
	<g>
		<polygon class="st1" points="695.14,211.84 611.8,38 405.11,340.01 597.33,354.75 		"/>
	</g>
</g>
<g id="XMLID_00000073714118721920446060000002168043304036808322_">
	<g>
		<polygon class="st2" points="976.69,65.99 867.81,225.08 695.14,211.84 611.8,38 		"/>
	</g>
	<g>
		<polygon class="st1" points="867.81,225.08 976.69,65.99 611.8,38 695.14,211.84 		"/>
	</g>
</g>
<g id="XMLID_00000097501382085915803120000016172922582526138511_">
	<g>
		<polygon class="st3" points="976.69,65.99 1134.89,395.99 942.67,381.25 867.81,225.08 		"/>
	</g>
	<g>
		<polygon class="st1" points="942.67,381.25 1134.89,395.99 976.69,65.99 867.81,225.08 		"/>
	</g>
</g>
<g id="XMLID_00000016052636919722560430000011825954968612352421_">
	<g>
		<polygon class="st4" points="811.24,521.58 844.86,524.16 928.2,698 563.31,670.01 672.19,510.92 		"/>
	</g>
	<g>
		<polygon class="st1" points="811.24,521.58 672.19,510.92 563.31,670.01 928.2,698 844.86,524.16 		"/>
		<line class="st1" x1="843.66" y1="566.12" x2="811.24" y2="521.58"/>
	</g>
</g>
<g id="XMLID_00000125562036593612151850000000551541394492042900_">
	<g>
		<polygon class="st5" points="1134.89,395.99 928.2,698 844.86,524.16 942.67,381.25 		"/>
	</g>
	<g>
		<polygon class="st1" points="942.67,381.25 844.86,524.16 928.2,698 1134.89,395.99 		"/>
	</g>
</g>
<g id="XMLID_00000178183249799347430270000015169004116425572489_">
	<g>
		<polygon class="st6" points="597.33,354.75 672.19,510.92 563.31,670.01 405.11,340.01 		"/>
	</g>
	<g>
		<polygon class="st1" points="597.33,354.75 405.11,340.01 563.31,670.01 672.19,510.92 		"/>
	</g>
</g>
<g id="XMLID_00000024717070955369266230000012654278829886665647_">
	<g>
		<polygon class="st7" points="811.24,521.58 672.19,510.92 597.33,354.75 695.14,211.84 867.81,225.08 942.67,381.25 
			844.86,524.16 		"/>
	</g>
	<g>
		<line class="st1" x1="811.24" y1="521.58" x2="734.94" y2="416.76"/>
		<polygon class="st1" points="695.14,211.84 597.33,354.75 672.19,510.92 811.24,521.58 844.86,524.16 942.67,381.25 
			867.81,225.08 		"/>
	</g>
</g>
</svg>
